<svg width="163" height="185" viewBox="0 0 163 185" fill="none" xmlns="http://www.w3.org/2000/svg">
<path d="M83.304 115.881L81.304 120.5L83.304 127.008L81 124.5L78.6759 126.697L81.304 120.5L79.3041 116.381L73.804 110.381C70.804 106.381 77.9707 107.715 81.304 108.881C90.104 105.681 90.3041 109.381 88.3041 110.881L83.304 115.881Z" fill="#F8BC1A"/>
<path d="M64.804 80.3814C64.804 82.0383 63.4608 83.3814 61.804 83.3814C60.1471 83.3814 58.804 82.0383 58.804 80.3814C58.804 78.7246 60.1471 77.3814 61.804 77.3814C63.4608 77.3814 64.804 78.7246 64.804 80.3814Z" fill="#F8BC1A"/>
<path d="M64.804 80.3814C64.804 82.0383 63.4608 83.3814 61.804 83.3814C60.1471 83.3814 58.804 82.0383 58.804 80.3814C58.804 78.7246 60.1471 77.3814 61.804 77.3814C63.4608 77.3814 64.804 78.7246 64.804 80.3814Z" fill="#F8BC1A"/>
<path d="M101.412 78.6253C103.067 78.712 104.338 80.1236 104.251 81.7782C104.164 83.4328 102.753 84.7038 101.098 84.6171C99.4436 84.5304 98.1726 83.1188 98.2593 81.4642C98.346 79.8096 99.7576 78.5386 101.412 78.6253Z" fill="#F8BC1A"/>
<path d="M101.412 78.6253C103.067 78.712 104.338 80.1236 104.251 81.7782C104.164 83.4328 102.753 84.7038 101.098 84.6171C99.4436 84.5304 98.1726 83.1188 98.2593 81.4642C98.346 79.8096 99.7576 78.5386 101.412 78.6253Z" fill="#F8BC1A"/>
<path d="M130.304 24.2664C124.616 21.2953 117.846 18.9228 109.804 17.3813C124.804 9.38135 116.304 15.3815 127.804 11.3814C122.304 6.95304 106.404 -0.0467322 80.8038 7.38134C70.8038 5.548 57.8038 -0.618641 35.8038 10.3814C35.8038 10.3814 47.8041 11.3813 54.804 15.8813C47.8911 15.8813 38.2496 19.6424 29.2215 26.8814M130.304 24.2664C112.804 36.8814 111.304 44.3814 111.304 44.3814M130.304 24.2664C147.361 33.1767 154.686 47.4709 157.415 60.8814M111.304 44.3814C105.971 41.8814 93.6036 37.8814 80.8038 41.8814C72.2963 40.3346 60.0667 39.9841 49.804 46.176M111.304 44.3814C117.162 46.4735 124.42 52.7673 129.27 70.8814M51.304 105.381C48.1373 110.715 45.304 129.881 58.804 134.881C59.843 134.622 61.4219 133.923 63.304 133.032M51.304 105.381L59.304 93.3814M51.304 105.381L41.054 95.3814L39.004 93.3814M81.304 126.381C86.804 128.048 95.704 131.281 99.304 132.881M81.304 126.381L99.304 132.881M81.304 126.381C76.4924 126.381 68.6672 130.491 63.304 133.032M99.304 132.881L103.804 134.881C110.471 131.048 118.804 117.881 111.304 106.381M99.304 132.881C100.137 137.048 99.204 144.481 94.804 144.881C81.304 144.881 86.304 139.381 76.804 143.381C63.204 150.981 62.6373 139.982 63.304 133.032M111.304 106.381L103.804 93.8814M111.304 106.381L121.554 94.6314M39.004 93.3814L30.804 85.3814C31.1671 79.9336 31.9334 75.1233 33.029 70.8814M39.004 93.3814C33.5331 94.3814 20.9627 99.5814 14.4477 112.381M14.4477 112.381C11.9163 101.337 11.6161 90.8765 12.3038 84.3813L4.30379 87.3813C3.45383 77.6063 4.43269 68.757 6.67423 60.8814M14.4477 112.381C17.4376 125.426 23.5401 139.284 34.8038 148.381L37.304 137.381C41.304 146.881 55.604 168.781 80.804 180.381C95.304 175.381 120.304 155.881 124.304 135.881C125.304 138.881 127.804 141.881 127.804 148.381C133.095 143.954 141.646 133.006 146.577 116.381M33.029 70.8814C28.7008 65.3814 17.3705 55.6814 6.67423 60.8814M33.029 70.8814C36.3172 58.1508 42.5723 50.5391 49.804 46.176M6.67423 60.8814C10.93 45.9288 19.7373 34.4861 29.2215 26.8814M49.804 46.176C47.0823 39.0778 39.1555 25.2814 29.2215 26.8814M121.554 94.6314L131.804 82.8814C131.07 78.3944 130.216 74.4132 129.27 70.8814M121.554 94.6314C128.653 94.0481 143.596 97.5814 146.577 116.381M146.577 116.381C149.257 107.346 150.867 96.6346 150.304 84.3813H158.304C159.019 78.1122 159.208 69.6873 157.415 60.8814M157.415 60.8814C151.856 58.2147 138.443 56.4814 129.27 70.8814M81.304 120.5L83.304 115.881L88.3041 110.881C90.3041 109.381 90.104 105.681 81.304 108.881C77.9707 107.715 70.804 106.381 73.804 110.381L79.3041 116.381L81.304 120.5ZM81.304 120.5L78.6759 126.697L81 124.5L83.304 127.008L81.304 120.5ZM54.304 73.8814C69.7375 68.149 71.5599 79.5276 69.3744 85.3814M69.3744 85.3814C69.0817 86.1652 68.7173 86.85 68.304 87.3813L69.3744 85.3814ZM94.3716 88.7708C89.4547 73.0584 100.913 71.8339 106.645 74.3228M106.645 74.3228C107.412 74.6561 108.077 75.0559 108.586 75.4965L106.645 74.3228ZM64.804 80.3814C64.804 82.0383 63.4608 83.3814 61.804 83.3814C60.1471 83.3814 58.804 82.0383 58.804 80.3814C58.804 78.7246 60.1471 77.3814 61.804 77.3814C63.4608 77.3814 64.804 78.7246 64.804 80.3814ZM101.412 78.6253C103.067 78.712 104.338 80.1236 104.251 81.7782C104.164 83.4328 102.753 84.7038 101.098 84.6171C99.4436 84.5304 98.1726 83.1188 98.2593 81.4642C98.346 79.8096 99.7576 78.5386 101.412 78.6253Z" stroke="#F8BC1A" stroke-width="8"/>
</svg>
